<svg width="1280" height="720" viewBox="0 0 1280 720" fill="none" xmlns="http://www.w3.org/2000/svg">
<rect width="1280" height="720" fill="#110011"/>
<rect x="154" y="22" width="1098" height="675" rx="40" fill="#F7F8F8"/>
<rect x="185" y="133" width="159" height="88" rx="20" fill="white"/>
<rect x="185" y="133" width="159" height="88" rx="20" fill="white"/>
<rect x="185" y="133" width="159" height="88" rx="20" fill="white"/>
<rect x="758" y="133" width="159" height="88" rx="20" fill="white"/>
<rect x="758" y="133" width="159" height="88" rx="20" fill="white"/>
<rect x="758" y="133" width="159" height="88" rx="20" fill="white"/>
<rect x="374" y="133" width="159" height="88" rx="20" fill="white"/>
<rect x="374" y="133" width="159" height="88" rx="20" fill="white"/>
<rect x="374" y="133" width="159" height="88" rx="20" fill="white"/>
<rect x="566" y="133" width="159" height="88" rx="20" fill="white"/>
<rect x="566" y="133" width="159" height="88" rx="20" fill="white"/>
<rect x="566" y="133" width="159" height="88" rx="20" fill="white"/>
<rect x="185" y="247" width="732" height="254" rx="20" fill="white"/>
<rect x="185" y="247" width="732" height="254" rx="20" fill="white"/>
<rect x="185" y="247" width="732" height="254" rx="20" fill="white"/>
<rect x="717" y="510" width="200" height="174" rx="20" fill="white"/>
<rect x="717" y="510" width="200" height="174" rx="20" fill="white"/>
<rect x="717" y="510" width="200" height="174" rx="20" fill="white"/>
<rect x="185" y="510" width="510" height="174" rx="20" fill="white"/>
<rect x="185" y="510" width="510" height="174" rx="20" fill="white"/>
<rect x="185" y="510" width="510" height="174" rx="20" fill="white"/>
<rect x="940" y="133" width="293" height="551" rx="20" fill="white"/>
<rect x="940" y="133" width="293" height="551" rx="20" fill="white"/>
<rect x="940" y="133" width="293" height="551" rx="20" fill="white"/>
</svg>
